<?xml version="1.0" standalone="no"?>
<!DOCTYPE svg PUBLIC "-//W3C//DTD SVG 20010904//EN"
 "http://www.w3.org/TR/2001/REC-SVG-20010904/DTD/svg10.dtd">
<svg version="1.0" xmlns="http://www.w3.org/2000/svg"
 width="400.000000pt" height="400.000000pt" viewBox="0 0 400.000000 400.000000"
 preserveAspectRatio="xMidYMid meet">
<metadata>
Created by potrace 1.11, written by Peter Selinger 2001-2013
</metadata>
<g transform="translate(0.000000,400.000000) scale(0.100000,-0.100000)"
fill="#000000" stroke="none">
<path d="M1905 3573 c-81 -10 -237 -48 -328 -79 -454 -159 -828 -535 -978
-986 -21 -65 -39 -127 -39 -138 0 -10 -32 -55 -72 -100 -182 -203 -327 -456
-353 -617 -7 -42 -6 -43 22 -43 28 0 29 2 51 98 12 54 28 107 36 117 9 13 8
-3 -6 -56 -22 -85 -25 -204 -8 -269 26 -100 100 -184 213 -240 68 -34 92 -38
83 -14 -22 58 -15 238 15 349 l11 40 32 -107 c18 -58 57 -157 87 -219 l54
-112 154 6 c110 4 150 2 143 -5 -7 -7 -68 -13 -142 -16 -128 -5 -131 -5 -126
-26 22 -75 24 -72 -51 -84 -103 -17 -233 9 -358 70 l-60 30 125 -127 c197
-200 318 -305 411 -358 138 -78 304 -122 514 -136 104 -8 133 -14 215 -46 324
-127 739 -132 1079 -13 593 208 1022 764 1058 1373 6 106 8 112 43 165 21 30
58 92 83 137 36 65 42 84 32 93 -10 8 -24 -10 -64 -82 -29 -51 -60 -104 -70
-117 -18 -23 -18 -22 -24 77 -4 55 -10 108 -13 117 -5 12 -21 -6 -60 -67 -43
-66 -55 -94 -60 -140 -4 -32 -9 -58 -12 -58 -3 0 -16 9 -28 20 l-21 21 -59
-64 c-33 -35 -86 -88 -119 -117 l-60 -54 56 60 c106 113 159 178 159 196 0 10
-5 17 -11 16 -14 -4 -47 59 -54 104 -3 21 -18 51 -32 69 -19 23 -31 55 -44
123 -10 50 -18 107 -18 127 -1 20 -17 80 -37 133 -26 70 -33 100 -25 109 5 7
11 57 12 111 l1 97 29 -33 c21 -25 31 -30 37 -20 11 16 43 -30 101 -146 74
-148 116 -301 129 -472 l8 -95 47 73 c55 83 55 73 5 232 -45 145 -145 339
-237 460 -75 100 -210 240 -296 307 -22 17 -37 34 -33 38 11 12 238 -13 323
-35 172 -45 320 -142 387 -254 25 -42 29 -46 24 -21 -14 68 -79 178 -140 239
-163 160 -379 229 -716 225 l-155 -1 -85 34 c-189 77 -367 109 -595 106 -88 0
-173 -3 -190 -5z m603 -94 c135 -36 280 -100 387 -172 108 -73 249 -191 234
-195 -43 -11 -45 -13 -24 -24 10 -6 32 -14 48 -17 39 -8 33 -26 -9 -25 -34 1
-34 1 -19 -22 8 -13 12 -29 10 -37 -3 -7 3 -22 15 -32 11 -10 20 -26 20 -35 0
-10 13 -34 29 -54 16 -20 32 -49 34 -64 8 -46 6 -73 -4 -66 -5 3 -16 1 -23 -5
-9 -8 -28 4 -74 47 -34 32 -62 61 -62 66 0 4 11 22 25 40 l25 33 -28 26 c-20
20 -39 27 -66 27 -33 0 -37 2 -31 20 3 11 2 20 -3 20 -5 0 -9 7 -8 16 2 33
-23 25 -27 -8 -4 -30 -5 -31 -12 -11 -4 13 -11 20 -16 17 -10 -6 -39 19 -39
34 0 5 -19 12 -42 15 -25 3 -51 15 -66 31 l-26 25 25 -1 c13 -1 31 -7 39 -14
8 -6 38 -15 65 -19 28 -4 53 -12 57 -18 4 -6 9 -9 12 -6 3 3 -5 21 -19 39 -14
19 -25 39 -25 46 0 6 -18 19 -39 27 -45 18 -68 43 -30 33 23 -7 23 -7 5 8 -11
9 -31 16 -44 16 -21 0 -23 -2 -12 -15 39 -47 -60 -17 -115 34 -22 21 -79 56
-126 79 -82 40 -127 72 -100 72 6 0 11 7 11 15 0 7 8 18 17 24 24 13 19 15
-62 40 -57 17 -62 20 -25 15 25 -4 78 -15 118 -25z m-374 -37 c3 -5 -1 -9 -9
-9 -8 0 -12 4 -9 9 3 4 7 8 9 8 2 0 6 -4 9 -8z m140 -58 c9 -3 13 -10 10 -15
-8 -14 -54 -10 -70 6 -14 13 -12 15 14 15 17 0 37 -3 46 -6z m-28 -114 c13 0
24 -4 24 -9 0 -5 11 -12 25 -15 13 -3 36 -17 51 -31 15 -14 32 -25 39 -25 21
0 47 -37 43 -62 -3 -20 2 -23 30 -26 27 -3 38 3 61 29 24 27 31 30 48 21 24
-13 35 -46 20 -61 -8 -8 -6 -11 9 -11 10 0 49 -11 86 -24 52 -18 65 -20 61 -9
-4 10 15 4 57 -17 58 -29 61 -30 46 -8 -31 43 -13 51 34 16 19 -14 30 -31 31
-47 0 -19 17 -40 62 -77 113 -92 206 -227 257 -372 14 -40 28 -70 31 -68 12
13 8 -226 -5 -294 -27 -137 -85 -265 -160 -355 l-25 -30 -1 65 c-1 54 -3 62
-13 46 -80 -127 -186 -224 -311 -287 l-78 -39 -162 1 c-221 1 -389 12 -394 27
-2 7 -8 10 -13 7 -10 -7 -118 63 -161 103 -24 22 -31 24 -54 13 -19 -8 -25
-17 -21 -31 3 -11 1 -18 -4 -14 -12 7 -11 -13 1 -36 8 -16 5 -19 -19 -25 -16
-3 -68 -1 -116 6 -79 10 -89 10 -97 -5 -8 -15 -18 -12 -86 25 -95 51 -144 96
-136 122 8 24 -13 75 -44 109 -14 15 -26 36 -27 45 -1 10 -12 41 -24 68 -12
28 -25 62 -28 78 -6 27 -33 39 -33 14 0 -8 9 -40 20 -73 11 -32 20 -66 20 -74
0 -8 7 -28 15 -44 24 -45 17 -54 -10 -13 -14 20 -24 41 -21 46 3 5 -4 21 -15
35 -12 15 -18 34 -15 43 4 9 0 25 -7 37 -8 12 -17 47 -21 78 -4 31 -15 67 -25
80 -42 54 -29 201 26 288 12 19 25 48 28 63 6 21 12 26 26 22 21 -7 25 11 8
35 -9 13 -10 12 -5 -2 3 -10 2 -18 -3 -18 -4 0 -12 16 -18 35 -6 19 -8 35 -3
35 8 0 16 35 25 115 4 27 12 53 18 57 9 6 9 8 0 8 -7 0 -13 7 -13 16 0 11 5
14 16 10 14 -5 15 -4 5 8 -7 8 -12 23 -10 33 1 10 -2 33 -6 51 -6 24 -12 31
-23 27 -22 -8 -3 15 101 122 89 91 117 105 117 58 0 -12 5 -36 11 -54 9 -24
17 -31 38 -31 35 0 111 -54 111 -78 0 -15 47 -31 58 -20 7 7 16 6 30 -1 31
-17 49 -13 55 11 5 18 8 19 21 9 9 -8 13 -18 9 -25 -4 -7 -1 -7 7 1 10 9 10
15 2 26 -7 8 -9 17 -5 20 3 4 -5 15 -18 26 -20 17 -21 20 -6 21 9 0 17 5 17
10 0 6 6 10 14 10 9 0 13 -8 10 -22 -4 -21 -4 -21 7 2 7 14 11 31 10 38 -1 6
3 12 9 12 5 0 10 -6 10 -14 0 -17 25 -27 47 -19 10 4 14 2 10 -4 -5 -8 2 -8
23 0 25 10 33 8 52 -10 23 -21 93 -49 84 -34 -3 5 14 14 38 21 41 11 44 14 34
34 -14 33 -64 59 -95 51 -18 -4 -31 -1 -44 14 -18 20 -18 20 2 34 15 11 17 16
7 19 -23 8 45 92 77 96 20 3 25 0 19 -10 -5 -9 0 -8 16 3 24 16 26 15 53 -7
16 -13 39 -24 53 -24z m-229 -40 c-6 -16 -15 -30 -19 -30 -4 0 -8 -4 -8 -9 0
-5 -5 -22 -12 -38 -6 -15 -10 -34 -9 -40 1 -9 -12 -13 -41 -13 -36 0 -45 4
-55 25 -12 28 -2 33 21 10 16 -17 42 -20 50 -6 4 5 -3 7 -15 4 -18 -5 -20 -3
-14 16 5 16 2 21 -10 21 -12 0 -15 7 -13 25 2 14 7 25 12 24 5 0 12 3 15 9 12
17 46 31 78 32 31 0 31 -1 20 -30z m-137 -61 c0 -4 -9 -5 -20 -2 -11 3 -20 12
-20 19 0 12 4 12 20 2 11 -7 20 -16 20 -19z m-75 11 c-3 -5 -11 -10 -16 -10
-6 0 -7 5 -4 10 3 6 11 10 16 10 6 0 7 -4 4 -10z m-47 -17 c-2 -12 3 -18 14
-18 27 0 21 -19 -9 -27 -18 -5 -30 -3 -35 5 -12 18 -9 45 5 50 22 10 28 7 25
-10z m927 -13 c3 -5 2 -10 -4 -10 -5 0 -13 5 -16 10 -3 6 -2 10 4 10 5 0 13
-4 16 -10z m-838 -24 c-6 -17 -31 -13 -35 6 -2 12 2 15 18 11 11 -3 19 -11 17
-17z m-151 -4 c6 -4 13 -15 17 -25 4 -10 11 -15 17 -12 5 3 10 0 11 -7 0 -10
2 -10 6 0 2 6 12 12 20 12 12 0 13 -3 4 -14 -7 -8 -11 -30 -9 -48 3 -33 3 -33
-42 -33 -53 -1 -72 4 -64 16 3 5 0 9 -5 9 -6 0 -11 5 -11 11 0 7 9 9 23 6 19
-5 20 -4 5 6 -12 9 -14 17 -7 30 11 20 6 21 -22 7 -28 -16 -25 13 4 33 25 18
37 20 53 9z m-445 -375 c-10 -9 -11 -8 -5 6 3 10 9 15 12 12 3 -3 0 -11 -7
-18z m673 -1243 c179 -13 324 -15 649 -11 398 5 416 4 395 -12 -59 -45 -218
-147 -334 -214 -117 -67 -133 -79 -168 -133 -84 -126 -212 -217 -352 -250 -80
-19 -236 -15 -298 8 -32 12 -48 12 -100 1 -113 -24 -109 -26 -144 80 -18 52
-34 119 -38 149 l-6 55 -105 -28 c-176 -47 -393 -85 -393 -69 0 4 33 12 73 19
134 23 356 80 514 132 87 28 160 53 162 55 4 4 -35 62 -113 172 l-45 62 35 0
c20 0 140 -7 268 -16z m1279 -116 c25 1 27 -2 27 -36 0 -54 -36 -108 -111
-172 -110 -92 -284 -185 -419 -225 -24 -8 -24 -7 -7 16 36 51 208 331 224 363
9 19 27 39 40 45 30 14 73 14 73 1 0 -12 41 -6 67 9 10 6 32 8 48 5 17 -4 42
-6 58 -6z"/>
<path d="M2510 3435 c7 -8 27 -15 44 -15 l31 0 -29 15 c-39 20 -63 20 -46 0z"/>
<path d="M2590 3370 c0 -10 132 -70 156 -70 34 0 98 -44 114 -77 16 -35 38
-44 36 -15 -3 32 -27 64 -62 78 -19 8 -32 19 -29 24 6 10 5 11 -33 15 -13 1
-30 12 -38 24 -8 11 -20 21 -26 21 -6 0 -3 -9 7 -20 25 -27 6 -26 -67 4 -32
13 -58 20 -58 16z"/>
<path d="M1867 3066 c-13 -10 -16 -21 -12 -39 8 -29 50 -63 60 -47 9 14 -3 30
-22 30 -12 0 -14 7 -10 35 3 19 5 35 4 35 -1 0 -10 -7 -20 -14z"/>
<path d="M1957 2999 c7 -7 15 -10 18 -7 3 3 -2 9 -12 12 -14 6 -15 5 -6 -5z"/>
<path d="M1540 2970 c-12 -8 -9 -10 13 -10 16 0 26 4 22 10 -8 12 -16 12 -35
0z"/>
<path d="M1540 2855 c-14 -16 -3 -20 19 -6 8 5 9 11 3 15 -5 3 -15 -1 -22 -9z"/>
<path d="M1606 1861 c-11 -130 17 -176 105 -176 43 0 50 3 58 25 19 48 17 52
-34 67 -54 16 -78 31 -70 43 3 5 -8 35 -24 69 l-28 61 -7 -89z"/>
<path d="M2008 1788 c5 -5 16 -8 23 -6 8 3 3 7 -10 11 -17 4 -21 3 -13 -5z"/>
<path d="M3814 2817 c-1 -121 -30 -240 -94 -390 -50 -116 -48 -148 3 -57 81
145 124 312 114 442 -9 118 -22 120 -23 5z"/>
</g>
</svg>
